<svg width="287" height="209" viewBox="0 0 287 209" fill="none" xmlns="http://www.w3.org/2000/svg">
<path d="M187.295 175.419L193.974 178.511C193.974 178.511 192.153 173.636 191.812 172.041C191.598 171.042 191.053 170.29 190.085 169.771C188.548 168.948 186.634 169.525 185.811 171.063C185.011 172.557 185.541 174.397 186.981 175.256L186.97 175.267L187.057 175.307C187.074 175.316 187.087 175.33 187.103 175.337C187.166 175.371 187.231 175.389 187.295 175.417L187.295 175.419Z" fill="#45479E"/>
<path d="M198.814 180.056L191.453 177.931C191.453 177.931 196.212 175.34 197.567 174.32C198.415 173.681 199.358 173.462 200.473 173.714C202.245 174.115 203.355 175.876 202.955 177.645C202.565 179.365 200.892 180.451 199.175 180.144L199.174 180.16L199.081 180.134C199.061 180.13 199.043 180.131 199.023 180.127C198.95 180.11 198.887 180.078 198.818 180.058L198.814 180.056Z" fill="#45479E"/>
<path d="M207.828 182.592L178.886 171.788L169.282 197.515L198.225 208.319L207.828 182.592Z" fill="#E38B4A"/>
<path d="M205.794 188.041L176.874 177.245L176.496 178.258L205.416 189.053L205.794 188.041Z" fill="#DB6D1C"/>
<path d="M195.711 177.97L190.62 176.069L181.016 201.795L186.108 203.696L195.711 177.97Z" fill="#45479E"/>
<path d="M199.023 195.439C198.347 197.248 196.334 198.167 194.525 197.491C192.716 196.815 191.797 194.802 192.473 192.993C193.149 191.183 195.162 190.264 196.971 190.941C198.78 191.617 199.699 193.629 199.023 195.439Z" fill="#FFBD31"/>
<path d="M181.64 187.116C181.37 187.84 180.563 188.206 179.841 187.937C179.117 187.667 178.751 186.86 179.02 186.138C179.29 185.414 180.096 185.048 180.819 185.317C181.543 185.587 181.909 186.393 181.64 187.116Z" fill="#FFBD31"/>
<path d="M284.708 100.372L248.917 115.063L230.581 70.0221L266.372 55.328L284.708 100.372Z" fill="#FC796B"/>
<path d="M274.511 74.9803L238.713 89.8595L241.568 96.7284L277.366 81.8493L274.511 74.9803Z" fill="#E82D84"/>
<path d="M265.018 108.574L244.625 64.652L251.44 61.6709L271.833 105.593L265.018 108.574Z" fill="#E82D84"/>
<path d="M259.285 74.5425C261.634 72.6543 265.105 74.4539 264.916 77.4608C264.821 78.9685 265.714 80.3647 267.122 80.9112C269.931 82.0012 270.108 85.9065 267.41 87.2454C266.057 87.9178 265.296 89.3884 265.528 90.8818C265.989 93.8601 262.696 95.9658 260.186 94.3007C258.928 93.4653 257.274 93.5397 256.095 94.4867C253.749 96.375 250.276 94.5754 250.465 91.5684C250.559 90.0607 249.667 88.6645 248.259 88.1181C245.449 87.028 245.272 83.1227 247.97 81.7838C249.323 81.1114 250.084 79.6409 249.852 78.1474C249.392 75.1691 252.685 73.0634 255.194 74.7285C256.453 75.5639 258.107 75.4895 259.282 74.5425H259.285Z" fill="#F4FF8D"/>
<path d="M262.718 84.8908C262.718 87.7518 260.398 90.0721 257.537 90.0721C254.676 90.0721 252.355 87.7518 252.355 84.8908C252.355 82.0298 254.676 79.7095 257.537 79.7095C260.398 79.7095 262.718 82.0298 262.718 84.8908Z" fill="#F4CA34"/>
<path d="M230.176 172.86L228.872 171.347C229.108 171.145 234.674 166.382 240.174 165.044C247.215 163.332 251.296 163.103 254.825 163.664C255.449 152.635 263.551 138.039 267.496 133.534L268.997 134.851C265.386 138.972 257.299 153.693 256.805 164.065C258.065 164.374 259.311 164.773 260.669 165.227C265.969 166.997 267.672 170.81 267.519 173.537C267.392 175.791 266.065 177.567 264.217 177.961C262.932 178.231 259.578 178.149 256.144 171.471C255.286 169.805 254.871 167.835 254.797 165.683C251.405 165.093 247.58 165.296 240.646 166.982C235.623 168.204 230.234 172.812 230.18 172.859L230.176 172.86ZM256.81 166.132C256.913 167.789 257.261 169.291 257.915 170.561C260.207 175.014 262.456 176.298 263.798 176.013C264.754 175.811 265.449 174.771 265.522 173.428C265.643 171.306 264.267 168.536 260.035 167.125C258.896 166.744 257.848 166.407 256.81 166.132Z" fill="#FF7C5E"/>
<path d="M228.933 126.586L224.961 122.886L221.262 126.858L225.233 130.557L228.933 126.586Z" fill="#4FBFE0"/>
<path d="M29.456 191.785C26.781 191.785 24.6324 189.688 24.5665 187.013C24.4979 184.315 26.6379 182.066 29.3358 182H29.4588C32.1339 182 34.2825 184.094 34.3483 186.769C34.4141 189.467 32.277 191.716 29.5762 191.785H29.4532H29.456ZM29.4588 183.797H29.3788C27.6708 183.84 26.3204 185.264 26.3604 186.97C26.4005 188.635 27.7881 189.988 29.4532 189.988H29.5332C30.3601 189.965 31.1297 189.625 31.699 189.027C32.2684 188.426 32.5716 187.642 32.5516 186.815C32.5087 185.15 31.1211 183.797 29.4588 183.797Z" fill="#76E7A3"/>
<path d="M12 51L9.72501 69L0 56.8888L12 51Z" fill="#FF7C5E"/>
<path d="M138.835 192.01L138.592 199.978L131.565 195.738L138.835 192.01Z" fill="#FF7C5E"/>
<path d="M101.756 9.03006C101.932 4.39423 98.3162 0.493716 93.6804 0.318057C89.0446 0.142397 85.1441 3.75811 84.9684 8.39394C84.7928 13.0298 88.4085 16.9302 93.0443 17.1059C97.6801 17.2815 101.581 13.6659 101.756 9.03006Z" fill="#FB9FD9"/>
<path d="M93.1612 14.2001L87.7109 8.75274L93.3557 3.11654L98.8088 8.56391L93.1612 14.2001ZM88.8525 8.75274L93.1612 13.0586L97.6644 8.56391L93.3557 4.25808L88.8525 8.75274Z" fill="white"/>
<path d="M20.7603 124.075C25.164 124.075 28.7339 120.505 28.7339 116.101C28.7339 111.697 25.164 108.127 20.7603 108.127C16.3565 108.127 12.7866 111.697 12.7866 116.101C12.7866 120.505 16.3565 124.075 20.7603 124.075Z" fill="#3DADF3"/>
<path d="M20.5828 121.477L15.2441 116.144L20.7659 110.631L26.1046 115.964L20.5828 121.477ZM16.6604 116.144L20.5828 120.066L24.6912 115.964L20.7688 112.041L16.6604 116.144Z" fill="white"/>
<path d="M143.374 10.4854C144.579 9.98652 145.151 8.6058 144.652 7.40145C144.153 6.1971 142.772 5.62519 141.568 6.12404C140.364 6.6229 139.792 8.00362 140.29 9.20797C140.789 10.4123 142.17 10.9842 143.374 10.4854Z" fill="#FFA000"/>
<path d="M200.529 137.014L66.6632 153.285C63.522 153.669 60.6641 151.438 60.2828 148.307L49.6073 61.002C49.2261 57.8703 51.4597 55.0211 54.6009 54.641L188.467 38.3702C191.608 37.9901 194.466 40.217 194.847 43.3487L205.523 130.653C205.904 133.785 203.67 136.634 200.529 137.014Z" fill="#76E7A3"/>
<path d="M174.565 95.8313C174.565 99.0571 169.554 101.679 168.87 104.699C168.162 107.816 171.523 112.348 170.168 115.159C168.789 118.017 163.141 118.206 161.178 120.659C159.209 123.125 160.278 128.679 157.81 130.646C155.355 132.607 150.186 130.336 147.329 131.716C144.521 133.072 143.081 138.545 139.965 139.254C136.947 139.939 133.285 135.65 130.062 135.65C126.838 135.65 123.176 139.939 120.158 139.254C117.042 138.545 115.603 133.072 112.794 131.716C109.938 130.336 104.768 132.607 102.314 130.646C99.8486 128.676 100.914 123.125 98.9483 120.655C96.9892 118.199 91.3377 118.013 89.9619 115.155C88.6064 112.341 91.9683 107.813 91.2602 104.695C90.5757 101.675 85.5649 99.0571 85.5649 95.828C85.5649 92.5989 90.5757 89.9805 91.2602 86.9606C91.9683 83.8428 88.6064 79.3113 89.9619 76.4972C91.3411 73.6393 96.9892 73.4503 98.9517 70.9973C100.921 68.5307 99.852 62.9768 102.32 61.0097C104.775 59.0492 109.944 61.3201 112.8 59.94C115.613 58.5836 117.049 53.1107 120.165 52.4021C123.183 51.7171 126.845 56.0057 130.068 56.0057C133.292 56.0057 136.954 51.7171 139.972 52.4021C143.087 53.1107 144.527 58.5836 147.336 59.94C150.192 61.3201 155.361 59.0492 157.816 61.0097C160.281 62.9802 159.216 68.5307 161.182 71.0007C163.141 73.4571 168.792 73.6426 170.168 76.5006C171.523 79.3113 168.162 83.8428 168.87 86.9606C169.554 89.9805 174.565 92.5989 174.565 95.828V95.8313Z" fill="#1ECB9C"/>
<path d="M160.288 111.055C168.621 94.4794 161.939 74.2866 145.363 65.9535C128.787 57.6203 108.595 64.3023 100.261 80.8782C91.9282 97.4541 98.6103 117.647 115.186 125.98C131.762 134.313 151.955 127.631 160.288 111.055Z" fill="white"/>
<path d="M139.42 73.328L142.565 74.7968L117.706 118.328L114.565 116.803L139.42 73.328Z" fill="#1ECB9C"/>
<path d="M143.065 98.1894C146.146 98.1894 148.653 100.72 148.653 103.828C148.653 106.936 146.146 109.467 143.065 109.467C139.984 109.467 137.477 106.936 137.477 103.828C137.477 100.72 139.984 98.1894 143.065 98.1894ZM143.065 95.328C138.37 95.328 134.565 99.1342 134.565 103.828C134.565 108.522 138.37 112.328 143.065 112.328C147.76 112.328 151.565 108.522 151.565 103.828C151.565 99.1342 147.76 95.328 143.065 95.328Z" fill="#1ECB9C"/>
<path d="M115.065 81.1894C118.146 81.1894 120.653 83.7202 120.653 86.828C120.653 89.9358 118.146 92.4665 115.065 92.4665C111.984 92.4665 109.477 89.9358 109.477 86.828C109.477 83.7202 111.984 81.1894 115.065 81.1894ZM115.065 78.328C110.37 78.328 106.565 82.1342 106.565 86.828C106.565 91.5217 110.37 95.328 115.065 95.328C119.76 95.328 123.565 91.5217 123.565 86.828C123.565 82.1342 119.76 78.328 115.065 78.328Z" fill="#1ECB9C"/>
</svg>
